<mxfile host="app.diagrams.net" agent="Mozilla/5.0 (Windows NT 10.0; Win64; x64) AppleWebKit/537.36 (KHTML, like Gecko) Chrome/141.0.0.0 Safari/537.36" version="28.2.8">
  <diagram name="Page-1" id="N0VYhYUxLAoaGDoHVdfG">
    <mxGraphModel dx="1426" dy="743" grid="1" gridSize="10" guides="1" tooltips="1" connect="1" arrows="1" fold="1" page="1" pageScale="1" pageWidth="850" pageHeight="1100" math="0" shadow="0">
      <root>
        <mxCell id="0" />
        <mxCell id="1" parent="0" />
        <mxCell id="Ty4MtVZ6D-W1R_AtLPDX-26" value="" style="edgeStyle=orthogonalEdgeStyle;rounded=0;orthogonalLoop=1;jettySize=auto;html=1;" edge="1" parent="1" source="Ty4MtVZ6D-W1R_AtLPDX-1" target="Ty4MtVZ6D-W1R_AtLPDX-3">
          <mxGeometry relative="1" as="geometry" />
        </mxCell>
        <mxCell id="Ty4MtVZ6D-W1R_AtLPDX-1" value="Start" style="strokeWidth=2;html=1;shape=mxgraph.flowchart.terminator;whiteSpace=wrap;" vertex="1" parent="1">
          <mxGeometry x="30" y="30" width="100" height="60" as="geometry" />
        </mxCell>
        <mxCell id="Ty4MtVZ6D-W1R_AtLPDX-15" value="" style="edgeStyle=orthogonalEdgeStyle;rounded=0;orthogonalLoop=1;jettySize=auto;html=1;" edge="1" parent="1" source="Ty4MtVZ6D-W1R_AtLPDX-2" target="Ty4MtVZ6D-W1R_AtLPDX-4">
          <mxGeometry relative="1" as="geometry" />
        </mxCell>
        <mxCell id="Ty4MtVZ6D-W1R_AtLPDX-2" value="read in users desired location coords" style="shape=parallelogram;html=1;strokeWidth=2;perimeter=parallelogramPerimeter;whiteSpace=wrap;rounded=1;arcSize=12;size=0.23;" vertex="1" parent="1">
          <mxGeometry x="30" y="210" width="100" height="60" as="geometry" />
        </mxCell>
        <mxCell id="Ty4MtVZ6D-W1R_AtLPDX-14" value="" style="edgeStyle=orthogonalEdgeStyle;rounded=0;orthogonalLoop=1;jettySize=auto;html=1;" edge="1" parent="1" source="Ty4MtVZ6D-W1R_AtLPDX-3" target="Ty4MtVZ6D-W1R_AtLPDX-2">
          <mxGeometry relative="1" as="geometry" />
        </mxCell>
        <mxCell id="Ty4MtVZ6D-W1R_AtLPDX-3" value="Display piece selection menu" style="strokeWidth=2;html=1;shape=mxgraph.flowchart.display;whiteSpace=wrap;" vertex="1" parent="1">
          <mxGeometry x="30" y="120" width="100" height="60" as="geometry" />
        </mxCell>
        <mxCell id="Ty4MtVZ6D-W1R_AtLPDX-16" value="" style="edgeStyle=orthogonalEdgeStyle;rounded=0;orthogonalLoop=1;jettySize=auto;html=1;" edge="1" parent="1" source="Ty4MtVZ6D-W1R_AtLPDX-4" target="Ty4MtVZ6D-W1R_AtLPDX-5">
          <mxGeometry relative="1" as="geometry" />
        </mxCell>
        <mxCell id="Ty4MtVZ6D-W1R_AtLPDX-4" value="Process legality of the requested move" style="rounded=1;whiteSpace=wrap;html=1;absoluteArcSize=1;arcSize=14;strokeWidth=2;" vertex="1" parent="1">
          <mxGeometry x="30" y="300" width="100" height="100" as="geometry" />
        </mxCell>
        <mxCell id="Ty4MtVZ6D-W1R_AtLPDX-13" style="edgeStyle=orthogonalEdgeStyle;rounded=0;orthogonalLoop=1;jettySize=auto;html=1;exitX=1;exitY=0.5;exitDx=0;exitDy=0;exitPerimeter=0;" edge="1" parent="1" source="Ty4MtVZ6D-W1R_AtLPDX-5">
          <mxGeometry relative="1" as="geometry">
            <mxPoint x="150" y="480" as="targetPoint" />
          </mxGeometry>
        </mxCell>
        <mxCell id="Ty4MtVZ6D-W1R_AtLPDX-17" value="" style="edgeStyle=orthogonalEdgeStyle;rounded=0;orthogonalLoop=1;jettySize=auto;html=1;" edge="1" parent="1" source="Ty4MtVZ6D-W1R_AtLPDX-5" target="Ty4MtVZ6D-W1R_AtLPDX-7">
          <mxGeometry relative="1" as="geometry">
            <Array as="points">
              <mxPoint x="80" y="540" />
              <mxPoint x="80" y="540" />
            </Array>
          </mxGeometry>
        </mxCell>
        <mxCell id="Ty4MtVZ6D-W1R_AtLPDX-25" value="Yes" style="edgeLabel;html=1;align=center;verticalAlign=middle;resizable=0;points=[];" vertex="1" connectable="0" parent="Ty4MtVZ6D-W1R_AtLPDX-17">
          <mxGeometry x="-0.3333" relative="1" as="geometry">
            <mxPoint as="offset" />
          </mxGeometry>
        </mxCell>
        <mxCell id="Ty4MtVZ6D-W1R_AtLPDX-5" value="Legal move" style="strokeWidth=2;html=1;shape=mxgraph.flowchart.decision;whiteSpace=wrap;" vertex="1" parent="1">
          <mxGeometry x="30" y="430" width="100" height="100" as="geometry" />
        </mxCell>
        <mxCell id="Ty4MtVZ6D-W1R_AtLPDX-6" style="edgeStyle=orthogonalEdgeStyle;rounded=0;orthogonalLoop=1;jettySize=auto;html=1;exitX=1;exitY=0.5;exitDx=0;exitDy=0;exitPerimeter=0;entryX=1;entryY=0.5;entryDx=0;entryDy=0;entryPerimeter=0;" edge="1" parent="1" source="Ty4MtVZ6D-W1R_AtLPDX-5" target="Ty4MtVZ6D-W1R_AtLPDX-3">
          <mxGeometry relative="1" as="geometry" />
        </mxCell>
        <mxCell id="Ty4MtVZ6D-W1R_AtLPDX-18" value="" style="edgeStyle=orthogonalEdgeStyle;rounded=0;orthogonalLoop=1;jettySize=auto;html=1;" edge="1" parent="1" source="Ty4MtVZ6D-W1R_AtLPDX-7" target="Ty4MtVZ6D-W1R_AtLPDX-8">
          <mxGeometry relative="1" as="geometry" />
        </mxCell>
        <mxCell id="Ty4MtVZ6D-W1R_AtLPDX-7" value="Display resulting board" style="strokeWidth=2;html=1;shape=mxgraph.flowchart.display;whiteSpace=wrap;" vertex="1" parent="1">
          <mxGeometry x="30" y="560" width="100" height="60" as="geometry" />
        </mxCell>
        <mxCell id="Ty4MtVZ6D-W1R_AtLPDX-19" value="" style="edgeStyle=orthogonalEdgeStyle;rounded=0;orthogonalLoop=1;jettySize=auto;html=1;" edge="1" parent="1" source="Ty4MtVZ6D-W1R_AtLPDX-8" target="Ty4MtVZ6D-W1R_AtLPDX-11">
          <mxGeometry relative="1" as="geometry" />
        </mxCell>
        <mxCell id="Ty4MtVZ6D-W1R_AtLPDX-8" value="Process win conditions" style="rounded=1;whiteSpace=wrap;html=1;absoluteArcSize=1;arcSize=14;strokeWidth=2;" vertex="1" parent="1">
          <mxGeometry x="30" y="650" width="100" height="100" as="geometry" />
        </mxCell>
        <mxCell id="Ty4MtVZ6D-W1R_AtLPDX-21" value="" style="edgeStyle=orthogonalEdgeStyle;rounded=0;orthogonalLoop=1;jettySize=auto;html=1;" edge="1" parent="1" source="Ty4MtVZ6D-W1R_AtLPDX-9" target="Ty4MtVZ6D-W1R_AtLPDX-10">
          <mxGeometry relative="1" as="geometry" />
        </mxCell>
        <mxCell id="Ty4MtVZ6D-W1R_AtLPDX-9" value="Display game results" style="strokeWidth=2;html=1;shape=mxgraph.flowchart.display;whiteSpace=wrap;" vertex="1" parent="1">
          <mxGeometry x="30" y="910" width="100" height="60" as="geometry" />
        </mxCell>
        <mxCell id="Ty4MtVZ6D-W1R_AtLPDX-10" value="Stop" style="strokeWidth=2;html=1;shape=mxgraph.flowchart.terminator;whiteSpace=wrap;" vertex="1" parent="1">
          <mxGeometry x="30" y="1000" width="100" height="60" as="geometry" />
        </mxCell>
        <mxCell id="Ty4MtVZ6D-W1R_AtLPDX-12" style="edgeStyle=orthogonalEdgeStyle;rounded=0;orthogonalLoop=1;jettySize=auto;html=1;exitX=1;exitY=0.5;exitDx=0;exitDy=0;exitPerimeter=0;" edge="1" parent="1" source="Ty4MtVZ6D-W1R_AtLPDX-11">
          <mxGeometry relative="1" as="geometry">
            <mxPoint x="150" y="480" as="targetPoint" />
          </mxGeometry>
        </mxCell>
        <mxCell id="Ty4MtVZ6D-W1R_AtLPDX-23" value="Yes" style="edgeLabel;html=1;align=center;verticalAlign=middle;resizable=0;points=[];" vertex="1" connectable="0" parent="Ty4MtVZ6D-W1R_AtLPDX-12">
          <mxGeometry x="-0.8054" y="1" relative="1" as="geometry">
            <mxPoint as="offset" />
          </mxGeometry>
        </mxCell>
        <mxCell id="Ty4MtVZ6D-W1R_AtLPDX-20" value="" style="edgeStyle=orthogonalEdgeStyle;rounded=0;orthogonalLoop=1;jettySize=auto;html=1;" edge="1" parent="1" source="Ty4MtVZ6D-W1R_AtLPDX-11" target="Ty4MtVZ6D-W1R_AtLPDX-9">
          <mxGeometry relative="1" as="geometry" />
        </mxCell>
        <mxCell id="Ty4MtVZ6D-W1R_AtLPDX-22" value="No" style="edgeLabel;html=1;align=center;verticalAlign=middle;resizable=0;points=[];" vertex="1" connectable="0" parent="Ty4MtVZ6D-W1R_AtLPDX-20">
          <mxGeometry x="0.24" y="-1" relative="1" as="geometry">
            <mxPoint as="offset" />
          </mxGeometry>
        </mxCell>
        <mxCell id="Ty4MtVZ6D-W1R_AtLPDX-11" value="Game continues (no win or lose)" style="strokeWidth=2;html=1;shape=mxgraph.flowchart.decision;whiteSpace=wrap;" vertex="1" parent="1">
          <mxGeometry x="30" y="780" width="100" height="100" as="geometry" />
        </mxCell>
        <mxCell id="Ty4MtVZ6D-W1R_AtLPDX-24" value="No" style="text;html=1;whiteSpace=wrap;strokeColor=none;fillColor=none;align=center;verticalAlign=middle;rounded=0;" vertex="1" parent="1">
          <mxGeometry x="100" y="450" width="60" height="30" as="geometry" />
        </mxCell>
        <mxCell id="Ty4MtVZ6D-W1R_AtLPDX-27" value="/*&lt;br&gt; * Chad Galloway&lt;br&gt; * CST - 250 Programming in C# II&lt;br&gt; * 10/26/2025&lt;br&gt; * Vehicle Class Library&lt;br&gt; * Activity 1 Part 3: Week 2 preliminary flowchart&lt;br&gt; * References:&lt;br&gt; */" style="text;whiteSpace=wrap;html=1;" vertex="1" parent="1">
          <mxGeometry x="260" y="60" width="390" height="130" as="geometry" />
        </mxCell>
      </root>
    </mxGraphModel>
  </diagram>
</mxfile>
